<?xml version="1.0" encoding="UTF-8"?>
<!DOCTYPE svg PUBLIC "-//W3C//DTD SVG 1.1//EN" "http://www.w3.org/Graphics/SVG/1.1/DTD/svg11.dtd">
<!-- Creator: CorelDRAW 2020 (64-Bit) -->
<svg xmlns="http://www.w3.org/2000/svg" xml:space="preserve" width="13px" height="13px" version="1.1" style="shape-rendering:geometricPrecision; text-rendering:geometricPrecision; image-rendering:optimizeQuality; fill-rule:evenodd; clip-rule:evenodd"
viewBox="0 0 13 12.13"
 xmlns:xlink="http://www.w3.org/1999/xlink"
 xmlns:xodm="http://www.corel.com/coreldraw/odm/2003">
 <defs>
  <style type="text/css">
   <![CDATA[
    .fil1 {fill:#27A3DC;fill-rule:nonzero}
    .fil0 {fill:#495A6F;fill-rule:nonzero}
   ]]>
  </style>
 </defs>
 <g id="Layer_x0020_1">
  <path class="fil0" d="M0.48 10.86l0 0 0 0 0 -9.47c0,-0.01 0,-0.01 0,-0.02 0,-0.38 0.3,-0.68 0.68,-0.68l0.5 0 7.42 0 0.03 0c0.37,0 0.67,0.3 0.67,0.68l0 0 0 0.67 -7.95 0 0 8.12 7.95 0 0 0.68c0,0 0,0 0,0 0,0.37 -0.3,0.67 -0.67,0.67l-0.03 0 -7.25 0 -0.67 0c-0.37,0 -0.67,-0.29 -0.68,-0.65z"/>
  <path class="fil1" d="M10.46 11.51l0 -3.96c-0.34,-0.15 -0.62,-0.43 -0.79,-0.77l0.01 0 -3.02 0c-0.16,0.34 -0.43,0.61 -0.77,0.77l0 1.93 -0.67 0c-0.37,0 -0.67,-0.29 -0.68,-0.65l0 0 0 0 0 -1.28c-0.54,-0.26 -0.92,-0.81 -0.92,-1.45 0,-0.64 0.38,-1.19 0.92,-1.44l0 0 0 -1.24c0,-0.01 0,-0.02 0,-0.02 0,-0.38 0.3,-0.68 0.68,-0.68l0 0 0.67 0 0 1.94 0 0c0.34,0.16 0.61,0.43 0.77,0.77l3.02 0c0.16,-0.35 0.44,-0.62 0.78,-0.78l0 0.01 0 -3.97 0.67 0c0,0 0,0 0.01,0 0.37,0 0.67,0.3 0.67,0.68 0,0 0,0.01 0,0.02l0 3.28c0.53,0.26 0.9,0.8 0.9,1.43 0,0.63 -0.37,1.18 -0.9,1.43l0 3.33 0 0 0 0c-0.01,0.36 -0.31,0.65 -0.67,0.65l-0.68 0z"/>
 </g>
</svg>
